<?xml version="1.0" encoding="utf-8"?>
<!-- Generator: Adobe Illustrator 23.0.5, SVG Export Plug-In . SVG Version: 6.00 Build 0)  -->
<svg version="1.1" id="Capa_1" xmlns="http://www.w3.org/2000/svg" xmlns:xlink="http://www.w3.org/1999/xlink" x="0px" y="0px"
	 viewBox="0 0 72.52 105.85" style="enable-background:new 0 0 72.52 105.85;" xml:space="preserve">
<style type="text/css">
	.st0{fill:#4D4D4D;}
</style>
<g>
	<path class="st0" d="M0,105.85c0.1-7.03,1.28-13.12,3.56-18.27c2.28-5.15,5.1-9.43,8.47-12.85c3.37-3.42,7.6-6.99,12.69-10.72
		c3.56-2.62,7.22-5.33,10.98-8.12c3.76-2.8,6.74-5.3,8.94-7.51c2.21-2.2,3.91-4.58,5.11-7.12c1.2-2.54,1.8-5.43,1.8-8.65
		c0-3.37-1.16-6.69-3.47-9.98c-2.31-3.28-6.12-4.93-11.43-4.93c-3.83,0-6.82,0.78-8.96,2.33c-2.14,1.55-3.63,3.45-4.45,5.69
		c-0.82,2.24-1.29,4.47-1.4,6.67c-0.11,2.21-0.19,3.91-0.24,5.13H1.2c0-6.98,1.2-13.28,3.6-18.9c2.4-5.62,6.12-10.11,11.18-13.45
		S27.37,0.1,35.01,0c6.96,0,13.21,1.23,18.78,3.69c5.56,2.46,9.98,6.22,13.27,11.27c3.28,5.05,5.01,11.23,5.18,18.52
		c0,7.17-1.83,13.39-5.49,18.65c-3.66,5.26-8.56,10.07-14.7,14.43c-6.14,4.36-11.61,8.22-16.39,11.56s-7.83,6.48-9.14,9.42h46.02
		v18.32H0z"/>
</g>
</svg>
