<?xml version="1.0" encoding="utf-8"?>
<!-- Generator: Adobe Illustrator 23.0.5, SVG Export Plug-In . SVG Version: 6.00 Build 0)  -->
<svg version="1.1" id="Capa_1" xmlns="http://www.w3.org/2000/svg" xmlns:xlink="http://www.w3.org/1999/xlink" x="0px" y="0px"
	 viewBox="0 0 82.92 162.07" style="enable-background:new 0 0 82.92 162.07;" xml:space="preserve">
<style type="text/css">
	.st0{fill:#4D4D4D;}
</style>
<g>
	<path class="st0" d="M6.04,97.37h20.1c0.24,12.41,5.6,18.61,16.07,18.61c4.05,0,7.49-1.38,10.34-4.14s4.42-6.49,4.71-11.2
		c0-6.13-1.78-10.49-5.34-13.09c-3.56-2.59-9.14-3.89-16.72-3.89H33.7V68.61c6.88,0,11.98-0.88,15.29-2.64
		c3.31-1.76,5.22-4.65,5.73-8.67c0-5.45-1.14-9.54-3.42-12.27c-2.28-2.73-5.4-4.09-9.38-4.09h-0.29c-9.55,0-14.32,5.76-14.32,17.27
		H7.82c0-5.79,1.14-11.27,3.43-16.45c2.29-5.17,6.02-9.41,11.2-12.7c5.17-3.3,11.76-4.94,19.76-4.94c7.25,0.1,13.38,1.46,18.39,4.09
		c5.02,2.63,8.76,6.12,11.23,10.47c2.47,4.35,3.71,9.12,3.71,14.3c0,1.09-0.1,2.63-0.29,4.62c-1.31,7.32-5.38,12.74-12.21,16.25
		v0.29c10.54,3.49,15.81,12.23,15.81,26.21c-0.12,5.36-1.57,10.53-4.34,15.52c-2.78,4.99-7,9.09-12.69,12.29
		c-5.68,3.2-12.72,4.8-21.1,4.8c-8.41-0.39-15.21-2.27-20.39-5.65c-5.19-3.38-8.86-7.66-11.03-12.85
		C7.12,109.27,6.04,103.57,6.04,97.37z"/>
</g>
</svg>
